<svg xmlns="http://www.w3.org/2000/svg" viewBox="0 0 100 100" role="img" aria-labelledby="title">
  <title id="title">Sustainable Development Goals colour wheel</title>
  <circle cx="50" cy="50" r="43" fill="#fff"/>
  <g fill="none" stroke-width="14" stroke-dasharray="15 249" stroke-linecap="butt" transform="rotate(-90 50 50)">
    <circle cx="50" cy="50" r="36" stroke="#E5243B" stroke-dashoffset="0"/>
    <circle cx="50" cy="50" r="36" stroke="#DDA63A" stroke-dashoffset="-15.5"/>
    <circle cx="50" cy="50" r="36" stroke="#4C9F38" stroke-dashoffset="-31"/>
    <circle cx="50" cy="50" r="36" stroke="#C5192D" stroke-dashoffset="-46.5"/>
    <circle cx="50" cy="50" r="36" stroke="#FF3A21" stroke-dashoffset="-62"/>
    <circle cx="50" cy="50" r="36" stroke="#26BDE2" stroke-dashoffset="-77.5"/>
    <circle cx="50" cy="50" r="36" stroke="#FCC30B" stroke-dashoffset="-93"/>
    <circle cx="50" cy="50" r="36" stroke="#A21942" stroke-dashoffset="-108.5"/>
    <circle cx="50" cy="50" r="36" stroke="#FD6925" stroke-dashoffset="-124"/>
    <circle cx="50" cy="50" r="36" stroke="#DD1367" stroke-dashoffset="-139.5"/>
    <circle cx="50" cy="50" r="36" stroke="#FD9D24" stroke-dashoffset="-155"/>
    <circle cx="50" cy="50" r="36" stroke="#BF8B2E" stroke-dashoffset="-170.5"/>
    <circle cx="50" cy="50" r="36" stroke="#3F7E44" stroke-dashoffset="-186"/>
    <circle cx="50" cy="50" r="36" stroke="#0A97D9" stroke-dashoffset="-201.5"/>
    <circle cx="50" cy="50" r="36" stroke="#56C02B" stroke-dashoffset="-217"/>
    <circle cx="50" cy="50" r="36" stroke="#00689D" stroke-dashoffset="-232.5"/>
    <circle cx="50" cy="50" r="36" stroke="#19486A" stroke-dashoffset="-248"/>
  </g>
  <circle cx="50" cy="50" r="21" fill="#fff"/>
</svg>
